<svg width="400" height="300" viewBox="0 0 400 300" fill="none" xmlns="http://www.w3.org/2000/svg">
<g clip-path="url(#clip0_73_2)">
<path d="M134.673 73.3075V92.4777H102.905L140.716 130.074L127.353 143.451L97.862 113.928L68.8822 142.939L55.5194 129.562L92.5633 92.4777H60.7948V73.3075H134.65H134.673ZM73.4371 47.3207H122.333V64.9787H73.4371V47.3207ZM136.393 152.641H144.713V0H163.374V46.1807H178.503V0H197.397V152.641H205.461V235.649H185.801V171.811H136.393V152.641ZM163.374 152.641H178.503V66.3513H163.374V152.641Z" fill="black"/>
<path d="M292.168 131.958H259.656L295.701 185.188L279.828 196.029L254.381 157.177L228.678 196.285L213.061 185.188L249.361 131.958H216.849V112.788H292.215V131.958H292.168ZM215.547 216.479H244.783V186.7H264.955V216.479H294.446V235.649H215.547V216.479Z" fill="black"/>
<path d="M256.333 75.4479H325.633V159.225H305.717V94.6413H256.31V75.4711L256.333 75.4479ZM327.167 216.503H352.87V63.8387H372.531V110.508H399.744V129.678H372.531V216.479H400V300H380.339V235.649H327.167V216.479V216.503Z" fill="black"/>
<path d="M117.29 152.641H98.1409V171.811H117.29V152.641Z" fill="black"/>
<path d="M19.1494 152.641H0V171.811H19.1494V152.641Z" fill="black"/>
<path d="M19.1494 280.83H0V300H19.1494V280.83Z" fill="black"/>
<path d="M19.1494 0H0V19.1702H19.1494V0Z" fill="black"/>
<path d="M399.744 0H380.595V19.1702H399.744V0Z" fill="black"/>
<path d="M185.917 235.649H166.767V254.82H185.917V235.649Z" fill="black"/>
<path d="M327.144 235.649H307.994V254.82H327.144V235.649Z" fill="black"/>
<path d="M344.806 159.225H325.657V178.395H344.806V159.225Z" fill="black"/>
</g>
<defs>
<clipPath id="clip0_73_2">
<rect width="400" height="300" fill="white"/>
</clipPath>
</defs>
</svg>
